<svg width="32" height="32" viewBox="0 0 32 32" fill="none" xmlns="http://www.w3.org/2000/svg">
    <!-- Background circle -->
    <circle cx="16" cy="16" r="16" fill="#3B82F6"/>
    
    <!-- Chat bubble main -->
    <path d="M10 8C8.067 8 6.5 9.567 6.5 11.5V17.5C6.5 19.433 8.067 21 10 21H13V24C13 24.276 13.224 24.5 13.5 24.5C13.633 24.5 13.76 24.447 13.854 24.354L19.5 20.5H22C23.933 20.5 25.5 18.933 25.5 17V11.5C25.5 9.567 23.933 8 22 8H10Z" fill="white"/>
    
    <!-- Chat dots -->
    <circle cx="12" cy="14" r="1.5" fill="#3B82F6"/>
    <circle cx="16" cy="14" r="1.5" fill="#3B82F6"/>
    <circle cx="20" cy="14" r="1.5" fill="#3B82F6"/>
</svg>
